# xmcd CD database file
#
# Track frame offsets:
#	150
#	15025
#	28897
#	43249
#	56790
#	67874
#	81508
#	93463
#	106397
#	121558
#
# Disc length: 1768 seconds
#
# Revision: 0
# Processed by: cddbd v1.5.2PL0 Copyright (c) Steve Scherf et al.
# Submitted via: CDex 1.70beta2
#
DISCID=7906e60a
DTITLE=Muddy Waters - Blues Kings
DYEAR=2006
DGENRE=Blues
TTITLE0=(I'm Your) Hoochie Coochie Man
TTITLE1=I'm Ready
TTITLE2=Rollin' Stone
TTITLE3=Rollin' and Tumblin'
TTITLE4=Standin' Around Cryin'
TTITLE5=She Moves Me
TTITLE6=Baby Please Don't Go
TTITLE7=Forty Days And Forty Nights
TTITLE8=Rock Me
TTITLE9=I Feel So Good
EXTD=YEAR: 2006
EXTT0=
EXTT1=
EXTT2=
EXTT3=
EXTT4=
EXTT5=
EXTT6=
EXTT7=
EXTT8=
EXTT9=
PLAYORDER=
